<svg xmlns="http://www.w3.org/2000/svg" viewBox="0 0 200 300">
  <!-- Zipper fly: center front fly with zipper teeth and pull tab -->
  <g fill="currentColor" stroke="currentColor">
    <!-- Trouser front body context -->
    <path d="M68,40 L132,40 L136,90 L100,100 L64,90 Z" fill-opacity="0.04" stroke-width="1"/>
    <!-- Waistband -->
    <rect x="68" y="35" width="64" height="10" fill-opacity="0.08" stroke-width="1.5"/>
    <line x1="70" y1="41" x2="130" y2="41" stroke-width="1" stroke-dasharray="3,2"/>
    <!-- Fly placket outline -->
    <path d="M95,45 L105,45 L106,88 L94,88 Z" fill-opacity="0.07" stroke-width="1"/>
    <!-- Zipper stitch line (curved J-shape) -->
    <path d="M104,46 L104,82 Q104,88 97,88" fill="none" stroke-width="1.5"/>
    <!-- Zipper teeth -->
    <line x1="98" y1="50" x2="102" y2="50" stroke-width="1"/>
    <line x1="98" y1="55" x2="102" y2="55" stroke-width="1"/>
    <line x1="98" y1="60" x2="102" y2="60" stroke-width="1"/>
    <line x1="98" y1="65" x2="102" y2="65" stroke-width="1"/>
    <line x1="98" y1="70" x2="102" y2="70" stroke-width="1"/>
    <line x1="98" y1="75" x2="102" y2="75" stroke-width="1"/>
    <!-- Zipper pull tab -->
    <rect x="97" y="46" width="6" height="5" fill-opacity="0.08" stroke-width="1"/>
    <!-- Top button -->
    <circle cx="100" cy="43" r="2.5" fill-opacity="0.08" stroke-width="1"/>
  </g>
</svg>
