<svg xmlns="http://www.w3.org/2000/svg" viewBox="0 0 200 300">
  <path d="M60,75 C52,76 42,80 36,92 C34,98 36,104 40,106 C44,108 50,105 54,100 C54,108 54,114 56,118 L64,118 C64,114 64,108 65,100 C68,90 66,80 60,75 Z" fill="currentColor" fill-opacity="0.07" stroke="currentColor" stroke-width="1.5" stroke-linecap="round" stroke-linejoin="round"/>
  <path d="M140,75 C148,76 158,80 164,92 C166,98 164,104 160,106 C156,108 150,105 146,100 C146,108 146,114 144,118 L136,118 C136,114 136,108 135,100 C132,90 134,80 140,75 Z" fill="currentColor" fill-opacity="0.07" stroke="currentColor" stroke-width="1.5" stroke-linecap="round" stroke-linejoin="round"/>
</svg>
