<svg xmlns="http://www.w3.org/2000/svg" viewBox="0 38 200 172">
  <!-- Balloon sleeves: very wide, gathered at shoulder and wrist -->
  <!-- Left balloon sleeve -->
  <path d="M58,62 Q28,46 8,82 L0,158 L16,205 L52,205 L52,158 L52,82 Q62,46 62,62 Z"
    fill="currentColor" fill-opacity="0.08" stroke="currentColor" stroke-width="1.5" stroke-linejoin="round"/>
  <!-- Gather at wrist -->
  <path d="M16,205 Q34,212 52,205" stroke="currentColor" stroke-width="1.2" stroke-dasharray="3,2" fill="none"/>
  <!-- Volume line -->
  <line x1="10" y1="120" x2="4" y2="160" stroke="currentColor" stroke-width="0.75" stroke-dasharray="2,3"/>
  <!-- Right balloon sleeve -->
  <path d="M142,62 Q172,46 192,82 L200,158 L184,205 L148,205 L148,158 L148,82 Q138,46 138,62 Z"
    fill="currentColor" fill-opacity="0.08" stroke="currentColor" stroke-width="1.5" stroke-linejoin="round"/>
  <path d="M184,205 Q166,212 148,205" stroke="currentColor" stroke-width="1.2" stroke-dasharray="3,2" fill="none"/>
  <line x1="190" y1="120" x2="196" y2="160" stroke="currentColor" stroke-width="0.75" stroke-dasharray="2,3"/>
</svg>
