<svg xmlns="http://www.w3.org/2000/svg" viewBox="0 0 200 300">
  <!-- Bishop sleeves: wide voluminous through length, gathered tightly at wrist -->
  <!-- Left bishop sleeve -->
  <path d="M62,65 L32,88 L26,108 L36,116 Q28,150 22,186 Q30,200 50,198 Q65,196 68,186 Q72,150 68,114 L72,88 L62,65 Z"
    fill="currentColor" fill-opacity="0.08" stroke="currentColor" stroke-width="1.5" stroke-linejoin="round"/>
  <!-- Gather marks at wrist -->
  <path d="M22,186 Q36,194 68,186" stroke="currentColor" stroke-width="1.2" stroke-dasharray="3,2" fill="none"/>
  <!-- Volume suggestion line -->
  <path d="M28,142 Q20,158 22,172" stroke="currentColor" stroke-width="0.75" stroke-dasharray="2,3" fill="none"/>
  <!-- Right bishop sleeve -->
  <path d="M138,65 L168,88 L174,108 L164,116 Q172,150 178,186 Q170,200 150,198 Q135,196 132,186 Q128,150 132,114 L128,88 L138,65 Z"
    fill="currentColor" fill-opacity="0.08" stroke="currentColor" stroke-width="1.5" stroke-linejoin="round"/>
  <path d="M178,186 Q164,194 132,186" stroke="currentColor" stroke-width="1.2" stroke-dasharray="3,2" fill="none"/>
  <path d="M172,142 Q180,158 178,172" stroke="currentColor" stroke-width="0.75" stroke-dasharray="2,3" fill="none"/>
</svg>
