<svg xmlns="http://www.w3.org/2000/svg" viewBox="0 0 200 300">
  <!-- Shearling collar: thick fuzzy sheepskin collar -->
  <!-- Thick shearling collar shape -->
  <path d="M65,78 Q100,62 135,78 L130,48 Q100,38 70,48 Z"
    fill="currentColor" fill-opacity="0.08" stroke="currentColor" stroke-width="1.5"/>
  <!-- Fluffy texture: short irregular strokes -->
  <path d="M70,72 Q72,68 74,72" fill="none" stroke="currentColor" stroke-width="1"/>
  <path d="M78,68 Q80,63 82,68" fill="none" stroke="currentColor" stroke-width="1"/>
  <path d="M86,65 Q88,60 90,65" fill="none" stroke="currentColor" stroke-width="1"/>
  <path d="M94,63 Q96,58 98,63" fill="none" stroke="currentColor" stroke-width="1"/>
  <path d="M102,63 Q104,58 106,63" fill="none" stroke="currentColor" stroke-width="1"/>
  <path d="M110,65 Q112,60 114,65" fill="none" stroke="currentColor" stroke-width="1"/>
  <path d="M118,68 Q120,63 122,68" fill="none" stroke="currentColor" stroke-width="1"/>
  <path d="M126,72 Q128,68 130,72" fill="none" stroke="currentColor" stroke-width="1"/>
  <!-- Second row of fluffy texture -->
  <path d="M72,55 Q74,50 76,55" fill="none" stroke="currentColor" stroke-width="1"/>
  <path d="M84,51 Q86,46 88,51" fill="none" stroke="currentColor" stroke-width="1"/>
  <path d="M96,49 Q98,44 100,49" fill="none" stroke="currentColor" stroke-width="1"/>
  <path d="M112,51 Q114,46 116,51" fill="none" stroke="currentColor" stroke-width="1"/>
  <path d="M122,55 Q124,50 126,55" fill="none" stroke="currentColor" stroke-width="1"/>
</svg>
