<svg xmlns="http://www.w3.org/2000/svg" viewBox="0 0 200 300">
  <path d="M60,75 C52,80 44,90 40,110 C36,130 36,180 38,220 L52,220 C50,182 50,132 54,112 C58,92 64,82 70,78 Z" fill="currentColor" fill-opacity="0.07" stroke="currentColor" stroke-width="1.5" stroke-linecap="round" stroke-linejoin="round"/>
  <path d="M140,75 C148,80 156,90 160,110 C164,130 164,180 162,220 L148,220 C150,182 150,132 146,112 C142,92 136,82 130,78 Z" fill="currentColor" fill-opacity="0.07" stroke="currentColor" stroke-width="1.5" stroke-linecap="round" stroke-linejoin="round"/>
  <path d="M39,218 L51,218" fill="none" stroke="currentColor" stroke-width="1" stroke-dasharray="3,2"/>
  <path d="M149,218 L161,218" fill="none" stroke="currentColor" stroke-width="1" stroke-dasharray="3,2"/>
</svg>
