<svg xmlns="http://www.w3.org/2000/svg" viewBox="0 0 200 300">
  <path d="M60,75 C52,82 44,96 40,120 C37,145 37,165 39,175 L52,175 C51,165 51,145 54,120 C57,98 62,84 70,78 Z" fill="currentColor" fill-opacity="0.07" stroke="currentColor" stroke-width="1.5" stroke-linecap="round" stroke-linejoin="round"/>
  <path d="M140,75 C148,82 156,96 160,120 C163,145 163,165 161,175 L148,175 C149,165 149,145 146,120 C143,98 138,84 130,78 Z" fill="currentColor" fill-opacity="0.07" stroke="currentColor" stroke-width="1.5" stroke-linecap="round" stroke-linejoin="round"/>
  <path d="M40,173 L51,173" fill="none" stroke="currentColor" stroke-width="1" stroke-dasharray="3,2"/>
  <path d="M149,173 L160,173" fill="none" stroke="currentColor" stroke-width="1" stroke-dasharray="3,2"/>
</svg>
