<svg xmlns="http://www.w3.org/2000/svg" viewBox="0 0 200 300">
  <!-- Corset bodice: boning, lacing detail, structured -->
  <path d="M72,65 C68,68 62,74 60,90 C58,108 56,128 58,150 L142,150 C144,128 142,108 140,90 C138,74 132,68 128,65 Z" fill="currentColor" fill-opacity="0.08" stroke="currentColor" stroke-width="1.5" stroke-linecap="round" stroke-linejoin="round"/>
  <!-- Boning channels -->
  <line x1="76" y1="66" x2="76" y2="149" stroke="currentColor" stroke-width="1" stroke-dasharray="3,2"/>
  <line x1="88" y1="65" x2="87" y2="149" stroke="currentColor" stroke-width="1" stroke-dasharray="3,2"/>
  <line x1="100" y1="65" x2="100" y2="149" stroke="currentColor" stroke-width="1" stroke-dasharray="3,2"/>
  <line x1="112" y1="65" x2="113" y2="149" stroke="currentColor" stroke-width="1" stroke-dasharray="3,2"/>
  <line x1="124" y1="66" x2="124" y2="149" stroke="currentColor" stroke-width="1" stroke-dasharray="3,2"/>
  <!-- Lacing eyelets on side -->
  <circle cx="62" cy="95" r="2" fill="none" stroke="currentColor" stroke-width="1"/>
  <circle cx="62" cy="110" r="2" fill="none" stroke="currentColor" stroke-width="1"/>
  <circle cx="62" cy="125" r="2" fill="none" stroke="currentColor" stroke-width="1"/>
  <circle cx="62" cy="140" r="2" fill="none" stroke="currentColor" stroke-width="1"/>
</svg>
