<svg xmlns="http://www.w3.org/2000/svg" viewBox="10 38 180 173">
  <!-- Puff sleeves: large puffed cap, then straight tube -->
  <!-- Left puff sleeve -->
  <path d="M58,62 Q24,46 14,84 Q18,100 28,102 L26,205 L52,205 L52,102 Q62,100 66,84 Q76,46 62,62 Z"
    fill="currentColor" fill-opacity="0.09" stroke="currentColor" stroke-width="1.5" stroke-linejoin="round"/>
  <!-- Gather line at base of puff -->
  <path d="M28,102 Q40,108 52,102" stroke="currentColor" stroke-width="1.2" stroke-dasharray="3,2" fill="none"/>
  <!-- Right puff sleeve -->
  <path d="M142,62 Q176,46 186,84 Q182,100 172,102 L174,205 L148,205 L148,102 Q138,100 134,84 Q124,46 138,62 Z"
    fill="currentColor" fill-opacity="0.09" stroke="currentColor" stroke-width="1.5" stroke-linejoin="round"/>
  <path d="M172,102 Q160,108 148,102" stroke="currentColor" stroke-width="1.2" stroke-dasharray="3,2" fill="none"/>
</svg>
