<svg xmlns="http://www.w3.org/2000/svg" viewBox="4 40 192 178">
  <!-- Bishop sleeves: wide flowing body, gathered at wrist -->
  <!-- Left bishop sleeve -->
  <path d="M58,62 Q38,58 22,82 L10,155 L26,205 L52,205 L52,155 L52,82 Q62,58 62,62 Z"
    fill="currentColor" fill-opacity="0.08" stroke="currentColor" stroke-width="1.5" stroke-linejoin="round"/>
  <!-- Gather at wrist -->
  <path d="M26,205 Q38,212 52,205" stroke="currentColor" stroke-width="1.2" stroke-dasharray="3,2" fill="none"/>
  <!-- Volume line -->
  <line x1="22" y1="130" x2="12" y2="170" stroke="currentColor" stroke-width="0.75" stroke-dasharray="2,3"/>
  <!-- Right bishop sleeve -->
  <path d="M142,62 Q162,58 178,82 L190,155 L174,205 L148,205 L148,155 L148,82 Q138,58 138,62 Z"
    fill="currentColor" fill-opacity="0.08" stroke="currentColor" stroke-width="1.5" stroke-linejoin="round"/>
  <path d="M174,205 Q162,212 148,205" stroke="currentColor" stroke-width="1.2" stroke-dasharray="3,2" fill="none"/>
  <line x1="178" y1="130" x2="188" y2="170" stroke="currentColor" stroke-width="0.75" stroke-dasharray="2,3"/>
</svg>
