<svg xmlns="http://www.w3.org/2000/svg" viewBox="0 0 200 300">
  <!-- Three-quarter sleeves: ending mid-forearm ~y175 -->
  <!-- Left sleeve -->
  <path d="M58,75 C50,82 42,96 38,120 C35,145 35,165 37,175 L50,175 C49,165 49,145 52,120 C55,98 60,84 68,78 Z" fill="currentColor" fill-opacity="0.07" stroke="currentColor" stroke-width="1.5" stroke-linecap="round" stroke-linejoin="round"/>
  <!-- Right sleeve -->
  <path d="M142,75 C150,82 158,96 162,120 C165,145 165,165 163,175 L150,175 C151,165 151,145 148,120 C145,98 140,84 132,78 Z" fill="currentColor" fill-opacity="0.07" stroke="currentColor" stroke-width="1.5" stroke-linecap="round" stroke-linejoin="round"/>
  <!-- Hem stitch lines -->
  <path d="M38,173 L49,173" fill="none" stroke="currentColor" stroke-width="1" stroke-dasharray="3,2"/>
  <path d="M151,173 L162,173" fill="none" stroke="currentColor" stroke-width="1" stroke-dasharray="3,2"/>
</svg>
