<svg xmlns="http://www.w3.org/2000/svg" viewBox="0 0 200 300">
  <!-- Self-tie: fabric sash tied at waist side -->
  <!-- Waist band -->
  <path d="M62,148 L138,148 L138,158 L62,158 Z" fill="currentColor" fill-opacity="0.07" stroke="currentColor" stroke-width="1.5" stroke-linecap="round"/>
  <!-- Tie extending from left side -->
  <path d="M62,150 C50,148 38,144 28,140 C24,138 20,136 22,134 C24,132 28,134 32,136 C36,138 42,142 52,144" fill="none" stroke="currentColor" stroke-width="1.5" stroke-linecap="round"/>
  <!-- Bow/knot at side -->
  <path d="M62,153 C58,150 52,148 48,150 C44,152 44,156 48,158 C52,160 58,158 62,155" fill="currentColor" fill-opacity="0.08" stroke="currentColor" stroke-width="1.5" stroke-linecap="round"/>
  <!-- Tie tail -->
  <path d="M48,154 C40,156 32,160 26,166 C24,168 26,170 28,168 C32,165 40,162 50,160" fill="none" stroke="currentColor" stroke-width="1.5" stroke-linecap="round"/>
</svg>
