<svg xmlns="http://www.w3.org/2000/svg" viewBox="0 0 200 300">
  <path d="M60,75 C54,80 48,90 46,105 C44,118 40,135 32,155 L57,155 C57,140 58,125 58,110 C59,96 62,84 70,78 Z" fill="currentColor" fill-opacity="0.07" stroke="currentColor" stroke-width="1.5" stroke-linecap="round" stroke-linejoin="round"/>
  <path d="M140,75 C146,80 152,90 154,105 C156,118 160,135 168,155 L143,155 C143,140 142,125 142,110 C141,96 138,84 130,78 Z" fill="currentColor" fill-opacity="0.07" stroke="currentColor" stroke-width="1.5" stroke-linecap="round" stroke-linejoin="round"/>
  <path d="M33,153 L55,153" fill="none" stroke="currentColor" stroke-width="1" stroke-dasharray="3,2"/>
  <path d="M145,153 L167,153" fill="none" stroke="currentColor" stroke-width="1" stroke-dasharray="3,2"/>
</svg>
