<svg xmlns="http://www.w3.org/2000/svg" viewBox="0 0 200 300">
  <!-- Cropped cardigan: hem above waist/navel -->
  <path d="M70,65 L40,84 L36,108 L52,113 L56,165 L144,165 L148,113 L164,108 L160,84 L130,65 Q115,71 100,71 Q85,71 70,65 Z"
    fill="currentColor" fill-opacity="0.08" stroke="currentColor" stroke-width="1.5"/>
  <!-- Ribbed hem at crop length -->
  <rect x="55" y="158" width="90" height="9" fill="currentColor" fill-opacity="0.1" stroke="currentColor" stroke-width="1"/>
  <!-- Ribbed hem lines -->
  <line x1="62" y1="158" x2="62" y2="167" stroke="currentColor" stroke-width="1" stroke-dasharray="2,2"/>
  <line x1="72" y1="158" x2="72" y2="167" stroke="currentColor" stroke-width="1" stroke-dasharray="2,2"/>
  <line x1="82" y1="158" x2="82" y2="167" stroke="currentColor" stroke-width="1" stroke-dasharray="2,2"/>
  <line x1="118" y1="158" x2="118" y2="167" stroke="currentColor" stroke-width="1" stroke-dasharray="2,2"/>
  <line x1="128" y1="158" x2="128" y2="167" stroke="currentColor" stroke-width="1" stroke-dasharray="2,2"/>
  <line x1="138" y1="158" x2="138" y2="167" stroke="currentColor" stroke-width="1" stroke-dasharray="2,2"/>
  <line x1="100" y1="71" x2="100" y2="165" stroke="currentColor" stroke-width="1" stroke-dasharray="3,2"/>
</svg>
